# xmcd CD database file
#
# Track frame offsets:
#	150
#	14095
#	27962
#	43825
#	58302
#	86915
#	104970
#	128457
#	146035
#	174145
#	190070
#	215442
#	233567
#	240267
#
# Disc length: 3405 seconds
#
# Revision: 0
# Processed by: cddbd v1.5PL3 Copyright (c) Steve Scherf et al.
# Submitted via: CDex 1.50Beta6
#
DISCID=c30d4b0e
DTITLE=憂歌団 - "生聞"59分
DYEAR=1994
DGENRE=Blues
TTITLE0=マディ・ジャンプス・ワン
TTITLE1=イフ・アイ・ディドゥント・ラヴ・ユー
TTITLE2=俺の村では、俺も人気者
TTITLE3=10$の恋
TTITLE4=シカゴ・バウンド
TTITLE5=パチンコ〜ランラン・ブルース
TTITLE6=ステイ・ウイズ・ユー・フォーエバー
TTITLE7=ローリン・アンド・タンブリン
TTITLE8=イン・ジ・イブニング
TTITLE9=おそうじオバチャン
TTITLE10=ひとり暮し
TTITLE11=嫌んなった
TTITLE12=イコマ
TTITLE13=憂歌団のテーマ
EXTD=YEAR: 1994
EXTT0=
EXTT1=
EXTT2=
EXTT3=
EXTT4=
EXTT5=
EXTT6=
EXTT7=
EXTT8=
EXTT9=
EXTT10=
EXTT11=
EXTT12=
EXTT13=
PLAYORDER=
